# Material and material usage
mtllib quad1.mtl
usemtl default

# Vertices
v 0 0 0
v 1 0 0
v 0 1 0
v 1 1 0
v 1 0 1
v 1 1 1
v 0 0 1
v 0 1 1

# Normals
vn 0 0 -1
vn 0 0 1
vn 0 1 0
vn 0 -1 0
vn 1 0 0
vn -1 0 0

# Texture coordinates
vt 0 0.33
vt 0 0.67
vt 0.25 0.33
vt 0.25 0.67
vt 0.5 0.33
vt 0.5 0.67
vt 0.75 0.33
vt 0.75 0.67
vt 1 0.33
vt 1 0.67
vt 0 0
vt 0.25 0
vt 0 1
vt 0.25 1

# Faces

# Negative Z face
f 1/1/1 3/11/1 2/3/1
f 2/3/1 3/11/1 4/12/1

# Positive Z face
f 5/4/2 6/14/2 8/13/2
f 8/13/2 7/2/2 5/4/2

# Negative Y face
f 1/1/4 2/3/4 5/4/4
f 5/4/4 7/2/4 1/1/4

# Positive Y face
f 3/7/3 8/8/3 6/6/3
f 3/7/3 6/6/3 4/5/3

# Positive X face
f 2/3/5 4/5/5 6/6/5
f 2/3/5 6/6/5 5/4/5

# Negative X face
f 1/9/6 7/10/6 8/8/6
f 1/9/6 8/8/6 3/7/6


